# xmcd
#
# Track frame offsets:
#	150
#	14494
#	29583
#	53723
#	79316
#
# Disc length: 1230 seconds
#
# Revision: 1
# Processed by: cddbd v1.5.2PL0 Copyright (c) Steve Scherf et al.
# Submitted via: audiograbber 1.83.01
#
DISCID=3a04cc05
DTITLE=Groovestylerz - We are family [CDs)
DYEAR=2007
DGENRE=Dance
TTITLE0=We are family (original edit)
TTITLE1=We are family (2-4 grooves edit)
TTITLE2=We are family (original club)
TTITLE3=We are family (2-4 grooves rmx)
TTITLE4=We are family (steve n kings so hard rmx)
EXTD=
EXTT0=
EXTT1=
EXTT2=
EXTT3=
EXTT4=
PLAYORDER=
